<svg width="28" height="148" viewBox="0 0 28 148" fill="none" xmlns="http://www.w3.org/2000/svg">
<path d="M14 0.666667C6.6362 0.666667 0.666666 6.6362 0.666667 14C0.666667 21.3638 6.6362 27.3333 14 27.3333C21.3638 27.3333 27.3333 21.3638 27.3333 14C27.3333 6.6362 21.3638 0.666666 14 0.666667ZM14 120.667C6.63621 120.667 0.666672 126.636 0.666672 134C0.666672 141.364 6.63621 147.333 14 147.333C21.3638 147.333 27.3333 141.364 27.3333 134C27.3333 126.636 21.3638 120.667 14 120.667ZM14 14L11.5 14L11.5 134L14 134L16.5 134L16.5 14L14 14Z" fill="#216869"/>
</svg>
