<svg width="12" height="62" viewBox="0 0 12 62" fill="none" xmlns="http://www.w3.org/2000/svg">
<path d="M6 0.666667C3.05448 0.666667 0.666667 3.05448 0.666667 6C0.666667 8.94552 3.05448 11.3333 6 11.3333C8.94552 11.3333 11.3333 8.94552 11.3333 6C11.3333 3.05448 8.94552 0.666667 6 0.666667ZM6 50.6667C3.05448 50.6667 0.666665 53.0545 0.666664 56C0.666664 58.9455 3.05448 61.3333 6 61.3333C8.94552 61.3333 11.3333 58.9455 11.3333 56C11.3333 53.0545 8.94552 50.6667 6 50.6667ZM6 6L5 6L5 56L6 56L7 56L7 6L6 6Z" fill="#9CC5A1"/>
</svg>
